# xmcd CD database file
#
# Track frame offsets:
#	150
#	19352
#	36117
#	55318
#
# Disc length: 959 seconds
#
# Revision: 1
# Processed by: cddbd v1.5.2PL0 Copyright (c) Steve Scherf et al.
# Submitted via: CDex 1.70beta2
#
DISCID=2f03bd04
DTITLE=吉木りさ - 夜桜お七
DYEAR=2008
DGENRE=IDOL
TTITLE0=夜桜お七
TTITLE1=帰ってこいよ
TTITLE2=夜桜お七[Inst]
TTITLE3=帰ってこいよ[Inst]
EXTD=YEAR: 2008
EXTT0=
EXTT1=
EXTT2=
EXTT3=
PLAYORDER=
